<?xml version="1.0" standalone="no"?>
<!DOCTYPE svg PUBLIC "-//W3C//DTD SVG 20010904//EN"
 "http://www.w3.org/TR/2001/REC-SVG-20010904/DTD/svg10.dtd">
<svg version="1.0" xmlns="http://www.w3.org/2000/svg"
 width="455.000000pt" height="466.000000pt" viewBox="0 0 455.000000 466.000000"
 preserveAspectRatio="xMidYMid meet">

<g transform="translate(0.000000,466.000000) scale(0.100000,-0.100000)"
fill="#000000" stroke="none">
<path d="M3565 4639 c-279 -43 -496 -225 -586 -494 -21 -61 -24 -89 -24 -220
0 -143 2 -154 31 -238 l32 -87 -50 -36 c-35 -26 -48 -42 -45 -55 4 -13 -40
-49 -190 -155 -208 -147 -236 -174 -253 -232 -6 -20 -71 -434 -145 -919 -74
-486 -139 -891 -144 -901 -6 -11 -229 -128 -527 -276 -457 -227 -518 -254
-528 -240 -11 15 -18 13 -75 -15 -34 -18 -66 -29 -71 -26 -5 3 -72 -26 -149
-65 -77 -38 -147 -67 -154 -64 -11 4 -646 -303 -667 -322 -4 -4 131 -284 137
-284 15 0 663 333 663 340 0 5 63 41 140 80 77 39 140 75 140 80 0 6 29 25 65
42 56 28 65 36 61 54 -5 19 47 47 534 288 297 147 553 278 569 292 19 16 33
40 40 72 6 26 67 435 136 909 69 474 130 875 136 890 16 43 32 57 212 185
l168 119 -22 30 c-12 17 -20 31 -18 33 2 2 71 51 153 110 163 117 159 115 199
47 l17 -29 -95 -70 -96 -70 48 -41 c66 -56 187 -118 279 -141 104 -27 254 -27
358 0 230 59 423 237 503 465 25 74 28 92 28 230 0 116 -4 162 -18 205 -28 87
-29 88 -78 52 -23 -17 -45 -30 -48 -27 -4 2 -24 30 -45 62 -21 32 -55 83 -76
113 -20 30 -39 60 -43 66 -4 7 11 24 34 40 l41 28 -38 33 c-54 46 -186 109
-264 127 -88 20 -203 27 -275 15z m435 -565 c22 -42 25 -62 25 -149 0 -93 -2
-104 -32 -160 -38 -74 -105 -138 -181 -173 -49 -23 -70 -27 -147 -27 -81 0
-97 3 -155 32 -76 37 -153 109 -131 122 9 6 26 -5 55 -33 89 -90 232 -120 351
-75 75 28 155 101 186 172 35 78 34 201 -3 279 -14 31 -24 59 -20 62 12 13 28
-2 52 -50z m-125 -149 c0 -121 -89 -210 -210 -210 -65 1 -104 17 -148 61 l-27
27 177 118 178 119 14 -28 c9 -15 15 -54 16 -87z m-3457 -3532 c3 -20 -11 -30
-108 -77 -61 -30 -117 -53 -125 -49 -8 3 -15 16 -15 29 0 20 15 31 103 73 111
54 140 59 145 24z"/>
</g>
</svg>
